<mxfile host="app.diagrams.net" modified="2023-03-12T00:26:57.379Z" agent="5.0 (Windows NT 6.1; Win64; x64) AppleWebKit/537.36 (KHTML, like Gecko) Chrome/100.0.4896.127 Safari/537.36" etag="UzFK3rrhp6KQ8vtC5F5K" version="21.0.2" type="github">
  <diagram name="第 1 页" id="YvtEZz4fDpHej9pVCONi">
    <mxGraphModel dx="1434" dy="1971" grid="1" gridSize="10" guides="1" tooltips="1" connect="1" arrows="1" fold="1" page="1" pageScale="1" pageWidth="827" pageHeight="1169" math="0" shadow="0">
      <root>
        <mxCell id="0" />
        <mxCell id="1" parent="0" />
        <mxCell id="yrJ8rADurVAFEkHN2O-o-1" value="学习" style="rounded=1;whiteSpace=wrap;html=1;" vertex="1" parent="1">
          <mxGeometry x="150" y="560" width="120" height="60" as="geometry" />
        </mxCell>
        <mxCell id="yrJ8rADurVAFEkHN2O-o-2" value="专注" style="rounded=1;whiteSpace=wrap;html=1;" vertex="1" parent="1">
          <mxGeometry x="300" y="560" width="120" height="60" as="geometry" />
        </mxCell>
        <mxCell id="yrJ8rADurVAFEkHN2O-o-3" value="组块" style="rounded=1;whiteSpace=wrap;html=1;" vertex="1" parent="1">
          <mxGeometry x="450" y="560" width="120" height="60" as="geometry" />
        </mxCell>
        <mxCell id="yrJ8rADurVAFEkHN2O-o-4" value="系统" style="rounded=1;whiteSpace=wrap;html=1;" vertex="1" parent="1">
          <mxGeometry x="130" y="260" width="120" height="60" as="geometry" />
        </mxCell>
        <mxCell id="yrJ8rADurVAFEkHN2O-o-5" value="结构化" style="rounded=1;whiteSpace=wrap;html=1;" vertex="1" parent="1">
          <mxGeometry x="290" y="260" width="120" height="60" as="geometry" />
        </mxCell>
        <mxCell id="yrJ8rADurVAFEkHN2O-o-6" value="复杂性思维" style="rounded=1;whiteSpace=wrap;html=1;" vertex="1" parent="1">
          <mxGeometry x="160" y="430" width="120" height="60" as="geometry" />
        </mxCell>
        <mxCell id="yrJ8rADurVAFEkHN2O-o-7" value="模型" style="rounded=1;whiteSpace=wrap;html=1;" vertex="1" parent="1">
          <mxGeometry x="130" y="130" width="120" height="60" as="geometry" />
        </mxCell>
        <mxCell id="yrJ8rADurVAFEkHN2O-o-8" value="决策" style="rounded=1;whiteSpace=wrap;html=1;" vertex="1" parent="1">
          <mxGeometry x="380" y="-190" width="120" height="60" as="geometry" />
        </mxCell>
        <mxCell id="yrJ8rADurVAFEkHN2O-o-9" value="风口" style="rounded=1;whiteSpace=wrap;html=1;" vertex="1" parent="1">
          <mxGeometry x="294" y="-340" width="120" height="60" as="geometry" />
        </mxCell>
        <mxCell id="yrJ8rADurVAFEkHN2O-o-10" value="杠杆" style="rounded=1;whiteSpace=wrap;html=1;" vertex="1" parent="1">
          <mxGeometry x="460" y="-340" width="120" height="60" as="geometry" />
        </mxCell>
        <mxCell id="yrJ8rADurVAFEkHN2O-o-11" value="自由" style="rounded=1;whiteSpace=wrap;html=1;" vertex="1" parent="1">
          <mxGeometry x="380" y="-510" width="120" height="60" as="geometry" />
        </mxCell>
      </root>
    </mxGraphModel>
  </diagram>
</mxfile>
